<svg width="14" height="9" viewBox="0 0 14 9" fill="none" xmlns="http://www.w3.org/2000/svg">
<path d="M7 8.52344C6.80208 8.52344 6.625 8.44792 6.46875 8.29688L0.421875 2.10938C0.354167 2.04167 0.302083 1.96615 0.265625 1.88281C0.229167 1.79427 0.210937 1.70052 0.210937 1.60156C0.210937 1.46615 0.242187 1.34375 0.304687 1.23438C0.367187 1.125 0.450521 1.03906 0.554687 0.976562C0.664062 0.914062 0.786458 0.882812 0.921875 0.882812C1.11979 0.882812 1.28906 0.950521 1.42969 1.08594L7.41406 7.20313H6.57812L12.5625 1.08594C12.7083 0.950521 12.8776 0.882813 13.0703 0.882813C13.2057 0.882813 13.3255 0.914063 13.4297 0.976563C13.5391 1.03906 13.625 1.125 13.6875 1.23438C13.75 1.34375 13.7812 1.46615 13.7812 1.60156C13.7812 1.79427 13.7109 1.96094 13.5703 2.10156L7.52344 8.29688C7.45573 8.36979 7.375 8.42708 7.28125 8.46875C7.19271 8.50521 7.09896 8.52344 7 8.52344Z" fill="#1B1C25"/>
</svg>
